Ostrich_Running_Kinematics
version=1																											
nRows=49																											
nColumns=28																											
inDegrees=yes																											
endheader																											
time	pelvis_tilt	pelvis_list	pelvis_rotation	pelvis_tx	pelvis_ty	pelvis_tz	R_hip_extension	R_hip_abduction	R_hip_rotation	R_knee_angle	R_knee_varus	R_knee_rotation	R_ankle_angle	R_ankle_abduction	R_ankle_rotation	R_mtp_angle	R_mtp_abduction	R_mtp_rotation	L_hip_extension	L_hip_abduction	L_hip_rotation	L_knee_angle	L_knee_varus	L_knee_rotation	L_ankle_angle	L_ankle_abduction	L_mtp_angle
-0.035	14.61866667	6.5038	-0.749404	-0.07277167	1.09261802	-0.84796142	54.4042	-10.7996	-24.7188	-129.202	-19.9146	-20.7455	106.458	-0.57863	-19.8068	-147.764	-15.1002	-2.98727	68.413	-22.441	-25.96633333	-98.34666667	-17.209	-8.500233333	12.054	3.369	-16.79766667
-0.03	14.74616667	5.921	-0.74262	-0.05625105	1.0931404	-0.8483782	54.3635	-10.6509	-25.0865	-127.715	-19.975	-20.445	106.265	-0.03865	-20.057	-147.01	-15.4045	-2.9453	68.1725	-22.436	-26.18883333	-98.99666667	-17.5885	-8.705783333	12.083	3.273	-16.89316667
-0.025	14.87366667	5.3382	-0.735836	-0.03973043	1.09366278	-0.84879498	54.3228	-10.5022	-25.4542	-126.228	-20.0354	-20.1445	106.072	0.50133	-20.3072	-146.256	-15.7088	-2.90333	67.932	-22.431	-26.41133333	-99.64666667	-17.968	-8.911333333	12.112	3.177	-16.98866667
-0.02	15.00116667	4.7554	-0.729052	-0.02320981	1.09418516	-0.84921176	54.2821	-10.3535	-25.8219	-124.741	-20.0958	-19.844	105.879	1.04131	-20.5574	-145.502	-16.0131	-2.86136	67.6915	-22.426	-26.63383333	-100.2966667	-18.3475	-9.116883333	12.141	3.081	-17.08416667
-0.015	15.12866667	4.1726	-0.722268	-0.00668919	1.09470754	-0.84962854	54.2414	-10.2048	-26.1896	-123.254	-20.1562	-19.5435	105.686	1.58129	-20.8076	-144.748	-16.3174	-2.81939	67.451	-22.421	-26.85633333	-100.9466667	-18.727	-9.322433333	12.17	2.985	-17.17966667
-0.01	15.25616667	3.5898	-0.715484	0.00983143	1.09522992	-0.85004532	54.2007	-10.0561	-26.5573	-121.767	-20.2166	-19.243	105.493	2.12127	-21.0578	-143.994	-16.6217	-2.77742	67.2105	-22.416	-27.07883333	-101.5966667	-19.1065	-9.527983333	12.199	2.889	-17.27516667
-0.005	15.38366667	3.007	-0.7087	0.02635205	1.0957523	-0.8504621	54.16	-9.9074	-26.925	-120.28	-20.277	-18.9425	105.3	2.66125	-21.308	-143.24	-16.926	-2.73545	66.97	-22.411	-27.30133333	-102.2466667	-19.486	-9.733533333	12.228	2.793	-17.37066667
0	15.508	2.432	-0.70375	0.0429027	1.096484	-0.8508914	54.13	-9.7679	-27.284	-118.76	-20.328	-18.632	105.02	3.2212	-21.56	-142.42	-17.191	-2.6885	66.718	-22.398	-27.524	-102.88	-19.862	-9.9409	12.259	2.7018	-17.502
0.005	15.645	1.834	-0.69329	0.0593638	1.0965875	-0.8512828	54.068	-9.6009	-27.669	-117.34	-20.407	-18.352	105	3.7212	-21.806	-141.8	-17.573	-2.6565	66.512	-22.417	-27.746	-103.58	-20.252	-10.141	12.282	2.5914	-17.49
0.01	15.763	1.25	-0.68653	0.0758828	1.0971106	-0.8517006	54.027	-9.4519	-28.037	-115.85	-20.468	-18.05	104.81	4.2613	-22.058	-141.04	-17.88	-2.6145	66.237	-22.388	-27.969	-104.18	-20.621	-10.352	12.317	2.5098	-17.693
0.015	15.86	0.684	-0.68339	0.0924651	1.0980509	-0.8521414	54.008	-9.3219	-28.387	-114.3	-20.509	-17.731	104.44	4.8411	-22.31	-140.16	-18.103	-2.5626	65.897	-22.309	-28.191	-104.67	-20.964	-10.575	12.365	2.4571	-18.118
0.02	15.936	0.143	-0.68389	0.1091157	1.099403	-0.8526029	54.013	-9.2123	-28.717	-112.68	-20.527	-17.403	103.92	5.46	-22.555	-139.14	-18.234	-2.5006	65.495	-22.177	-28.407	-105.07	-21.28	-10.811	12.431	2.4331	-18.774
0.025	15.989	-0.37	-0.68801	0.1258384	1.1011567	-0.8530823	54.041	-9.1246	-29.025	-111.02	-20.521	-17.069	103.24	6.117	-22.789	-137.98	-18.266	-2.4284	65.036	-21.992	-28.612	-105.36	-21.566	-11.062	12.517	2.4368	-19.672
0.03	16.019	-0.85	-0.69551	0.142636	1.1032997	-0.8535767	54.092	-9.0583	-29.312	-109.31	-20.492	-16.737	102.4	6.8107	-23.003	-136.67	-18.195	-2.3458	64.527	-21.755	-28.8	-105.56	-21.818	-11.33	12.627	2.4668	-20.823
0.035	16.024	-1.298	-0.70631	0.1595105	1.1058156	-0.8540833	54.166	-9.0122	-29.58	-107.57	-20.439	-16.409	101.41	7.5389	-23.191	-135.23	-18.015	-2.2532	63.97	-21.464	-28.965	-105.68	-22.033	-11.616	12.765	2.5218	-22.237
0.04	16.006	-1.713	-0.7202	0.1764625	1.108683	-0.8545992	54.259	-8.9838	-29.83	-105.8	-20.361	-16.092	100.28	8.2992	-23.346	-133.64	-17.724	-2.1513	63.371	-21.121	-29.103	-105.71	-22.207	-11.921	12.936	2.6004	-23.924
0.045	15.965	-2.097	-0.73703	0.193491	1.1118738	-0.8551214	54.368	-8.9698	-30.064	-104.01	-20.26	-15.787	99.006	9.0878	-23.46	-131.93	-17.32	-2.0412	62.731	-20.724	-29.209	-105.67	-22.335	-12.246	13.145	2.701	-25.892
0.05	15.903	-2.452	-0.7565	0.2105941	1.1153539	-0.8556468	54.489	-8.9667	-30.286	-102.2	-20.134	-15.498	97.596	9.9006	-23.524	-130.11	-16.803	-1.9242	62.055	-20.275	-29.28	-105.55	-22.415	-12.592	13.397	2.8224	-28.146
0.055	15.821	-2.784	-0.77828	0.2277686	1.1190873	-0.8561722	54.615	-8.9701	-30.5	-100.38	-19.985	-15.224	96.057	10.732	-23.532	-128.18	-16.175	-1.8019	61.347	-19.777	-29.315	-105.37	-22.445	-12.959	13.697	2.9633	-30.684
0.06	15.722	-3.095	-0.80186	0.2450111	1.1230385	-0.8566938	54.743	-8.9756	-30.709	-98.56	-19.813	-14.968	94.39	11.576	-23.476	-126.16	-15.437	-1.6756	60.615	-19.234	-29.311	-105.13	-22.426	-13.345	14.051	3.1223	-33.499
0.065	15.608	-3.388	-0.82693	0.2623179	1.1271726	-0.8572084	54.869	-8.9808	-30.916	-96.738	-19.619	-14.73	92.602	12.427	-23.349	-124.07	-14.595	-1.5471	59.869	-18.654	-29.268	-104.86	-22.359	-13.748	14.462	3.298	-36.576
0.07	15.479	-3.664	-0.85327	0.279685	1.1314552	-0.8577131	54.991	-8.9846	-31.12	-94.924	-19.403	-14.509	90.697	13.277	-23.145	-121.92	-13.656	-1.4181	59.12	-18.048	-29.184	-104.56	-22.248	-14.165	14.936	3.4888	-39.89
0.075	15.337	-3.923	-0.88074	0.2971084	1.1358507	-0.8582051	55.109	-8.9875	-31.322	-93.124	-19.167	-14.306	88.679	14.12	-22.859	-119.72	-12.63	-1.2903	58.38	-17.428	-29.059	-104.26	-22.096	-14.591	15.476	3.6928	-43.412
0.08	15.184	-4.161	-0.90935	0.3145847	1.1403242	-0.8586828	55.224	-8.9919	-31.518	-91.346	-18.914	-14.12	86.553	14.948	-22.486	-117.5	-11.529	-1.1654	57.659	-16.805	-28.894	-103.96	-21.908	-15.021	16.087	3.9082	-47.103
0.085	15.023	-4.376	-0.93904	0.3321109	1.1448407	-0.8591445	55.339	-9.0008	-31.707	-89.601	-18.646	-13.952	84.326	15.753	-22.024	-115.27	-10.365	-1.0446	56.965	-16.193	-28.692	-103.68	-21.691	-15.45	16.774	4.1335	-50.923
0.09	14.854	-4.564	-0.96989	0.3496847	1.1493665	-0.8595895	55.459	-9.0171	-31.884	-87.899	-18.365	-13.799	82.003	16.526	-21.473	-113.03	-9.1524	-0.92905	56.305	-15.601	-28.458	-103.43	-21.451	-15.873	17.539	4.3668	-54.83
0.095	14.68	-4.721	-1.002	0.3673047	1.153868	-0.8600177	55.587	-9.0442	-32.047	-86.25	-18.076	-13.662	79.592	17.258	-20.834	-110.8	-7.9065	-0.81915	55.683	-15.04	-28.198	-103.23	-21.194	-16.285	18.387	4.6067	-58.781
0.1	14.504	-4.846	-1.0354	0.3849698	1.1583131	-0.8604288	55.725	-9.0845	-32.193	-84.661	-17.781	-13.537	77.102	17.941	-20.11	-108.59	-6.6415	-0.71528	55.105	-14.518	-27.918	-103.09	-20.927	-16.683	19.32	4.8517	-62.741
0.105	14.326	-4.936	-1.0703	0.4026803	1.1626704	-0.860823	55.875	-9.1407	-32.319	-83.14	-17.482	-13.423	74.542	18.567	-19.305	-106.4	-5.3711	-0.6175	54.577	-14.043	-27.624	-103.02	-20.659	-17.063	20.34	5.1005	-66.679
0.11	14.149	-4.989	-1.1066	0.4204374	1.1669115	-0.8612006	56.038	-9.216	-32.421	-81.693	-17.179	-13.316	71.923	19.129	-18.427	-104.24	-4.107	-0.52562	54.106	-13.623	-27.323	-103.04	-20.396	-17.422	21.45	5.3515	-70.573
0.115	13.975	-5.005	-1.1444	0.4382424	1.1710101	-0.8615617	56.214	-9.3131	-32.496	-80.324	-16.874	-13.213	69.256	19.619	-17.483	-102.11	-2.8591	-0.43913	53.7	-13.262	-27.016	-103.14	-20.141	-17.757	22.65	5.6029	-74.408
0.12	13.806	-4.98	-1.1839	0.456096	1.1749415	-0.8619067	56.404	-9.4354	-32.54	-79.038	-16.564	-13.109	66.553	20.032	-16.482	-100.01	-1.6342	-0.35738	53.363	-12.965	-26.703	-103.35	-19.894	-18.068	23.942	5.8524	-78.182
0.125	13.642	-4.911	-1.2251	0.4739978	1.178682	-0.8622354	56.608	-9.5865	-32.547	-77.84	-16.252	-13.003	63.828	20.363	-15.435	-97.939	-0.43735	-0.27965	53.096	-12.732	-26.385	-103.66	-19.656	-18.352	25.324	6.0973	-81.9
0.13	13.485	-4.798	-1.268	0.491947	1.1822085	-0.8625478	56.825	-9.7691	-32.516	-76.731	-15.938	-12.892	61.091	20.61	-14.357	-95.903	0.72767	-0.20534	52.898	-12.56	-26.062	-104.08	-19.423	-18.611	26.796	6.3351	-85.574
0.135	13.336	-4.638	-1.3124	0.5099435	1.1855012	-0.8628436	57.057	-9.9852	-32.443	-75.715	-15.623	-12.773	58.357	20.771	-13.259	-93.898	1.858	-0.13401	52.764	-12.445	-25.735	-104.59	-19.194	-18.844	28.355	6.5631	-89.223
0.14	13.195	-4.435	-1.3579	0.5279879	1.1885435	-0.8631226	57.305	-10.235	-32.329	-74.794	-15.309	-12.647	55.637	20.847	-12.153	-91.923	2.9518	-0.065376	52.688	-12.381	-25.403	-105.2	-18.968	-19.052	29.997	6.7786	-92.87
0.145	13.061	-4.189	-1.4043	0.54608	1.1913209	-0.8633844	57.57	-10.516	-32.173	-73.966	-14.995	-12.515	52.943	20.841	-11.052	-89.979	4.0076	0.00070225	52.664	-12.36	-25.07	-105.9	-18.743	-19.234	31.721	6.979	-96.534
0.15	12.934	-3.904	-1.4511	0.5642172	1.1938186	-0.8636281	57.848	-10.824	-31.978	-73.23	-14.682	-12.377	50.284	20.753	-9.9659	-88.067	5.0247	0.064295	52.687	-12.377	-24.733	-106.67	-18.517	-19.392	33.522	7.162	-100.22
0.155	12.815	-3.584	-1.498	0.5823936	1.1960214	-0.8638531	58.136	-11.156	-31.742	-72.583	-14.371	-12.236	47.67	20.589	-8.9068	-86.189	6.0025	0.12539	52.75	-12.425	-24.395	-107.51	-18.29	-19.523	35.397	7.3253	-103.93
0.16	12.705	-3.231	-1.5446	0.6006006	1.1979148	-0.8640578	58.43	-11.506	-31.469	-72.019	-14.06	-12.094	45.112	20.352	-7.8845	-84.35	6.9406	0.1839	52.847	-12.498	-24.056	-108.4	-18.062	-19.628	37.342	7.466	-107.65
0.165	12.606	-2.852	-1.5903	0.6188282	1.1994874	-0.8642407	58.722	-11.866	-31.161	-71.532	-13.75	-11.95	42.617	20.047	-6.9079	-82.552	7.837	0.2397	52.972	-12.59	-23.715	-109.35	-17.83	-19.705	39.354	7.581	-111.34
0.17	12.516	-2.451	-1.6347	0.6370668	1.2007306	-0.8643999	59.007	-12.232	-30.821	-71.116	-13.442	-11.807	40.193	19.68	-5.9852	-80.8	8.6897	0.29265	53.115	-12.693	-23.374	-110.33	-17.595	-19.753	41.429	7.6664	-115
0.175	12.437	-2.035	-1.6771	0.6553071	1.2016387	-0.8645339	59.28	-12.597	-30.455	-70.768	-13.134	-11.665	37.849	19.256	-5.1229	-79.098	9.4961	0.34268	53.267	-12.802	-23.034	-111.34	-17.355	-19.772	43.562	7.7186	-118.57
0.18	12.368	-1.608	-1.7172	0.6735408	1.2022084	-0.8646413	59.538	-12.959	-30.068	-70.485	-12.829	-11.525	35.59	18.782	-4.3261	-77.451	10.254	0.38977	53.416	-12.911	-22.697	-112.35	-17.111	-19.761	45.749	7.7353	-122.05
0.185	12.311	-1.175	-1.7547	0.6917605	1.2024385	-0.8647208	59.779	-13.314	-29.662	-70.265	-12.529	-11.389	33.422	18.266	-3.5988	-75.864	10.964	0.43398	53.557	-13.018	-22.369	-113.37	-16.87	-19.72	47.985	7.7152	-125.39
0.19	12.264	-0.739	-1.7895	0.7099611	1.2023302	-0.8647718	60.002	-13.66	-29.245	-70.11	-12.237	-11.255	31.352	17.713	-2.944	-74.342	11.624	0.47546	53.682	-13.123	-22.053	-114.38	-16.636	-19.65	50.264	7.6582	-128.59
0.195	12.228	-0.305	-1.8214	0.7281381	1.2018865	-0.8647928	60.207	-13.994	-28.824	-70.019	-11.957	-11.125	29.383	17.13	-2.3638	-72.883	12.239	0.5145	53.788	-13.223	-21.754	-115.38	-16.415	-19.554	52.581	7.5652	-131.61
0.2	12.204	0.12	-1.85	0.7462875	1.2011116	-0.8647827	60.395	-14.315	-28.405	-69.995	-11.694	-10.997	27.519	16.526	-1.8595	-71.486	12.813	0.55144	53.87	-13.318	-21.48	-116.37	-16.215	-19.434	54.932	7.4373	-134.45
0.205	12.191	0.533	-1.8752	0.7644053	1.2000115	-0.8647402	60.565	-14.62	-27.997	-70.039	-11.454	-10.87	25.766	15.907	-1.4313	-70.141	13.355	0.58676	53.927	-13.407	-21.238	-117.33	-16.04	-19.293	57.311	7.2761	-137.09
